{
	"patcher" : 	{
		"fileversion" : 1,
		"appversion" : 		{
			"major" : 9,
			"minor" : 0,
			"revision" : 8,
			"architecture" : "x64",
			"modernui" : 1
		}
,
		"classnamespace" : "box",
		"rect" : [ 59.0, 106.0, 1000.0, 780.0 ],
		"gridsize" : [ 15.0, 15.0 ],
		"boxes" : [ 			{
				"box" : 				{
					"id" : "obj-10",
					"maxclass" : "newobj",
					"numinlets" : 1,
					"numoutlets" : 2,
					"outlettype" : [ "jit_matrix", "" ],
					"patching_rect" : [ 385.75, 150.0, 59.0, 22.0 ],
					"text" : "jit.gl.layer"
				}

			}
, 			{
				"box" : 				{
					"filename" : "none",
					"id" : "obj-9",
					"maxclass" : "newobj",
					"numinlets" : 2,
					"numoutlets" : 2,
					"outlettype" : [ "jit_gl_texture", "" ],
					"patching_rect" : [ 385.75, 107.5, 55.0, 22.0 ],
					"text" : "jit.gl.slab",
					"textfile" : 					{
						"text" : "<jittershader name=\"default\">\n\t<description>Default Slab </description>\n\t<param name=\"scale\" type=\"float\" default=\"1.0\" />\n\t<param name=\"tex0\" type=\"int\" default=\"0\" />\n\t<param name=\"modelViewProjectionMatrix\" type=\"mat4\" state=\"MODELVIEW_PROJECTION_MATRIX\" />\n\t<param name=\"textureMatrix0\" type=\"mat4\" state=\"TEXTURE0_MATRIX\" />\n\t<param name=\"position\" type=\"vec3\" state=\"POSITION\" />\n\t<param name=\"texcoord\" type=\"vec2\" state=\"TEXCOORD\" />\n\t<param name=\"color\" type=\"vec4\" state=\"COLOR0\" />\n\t<language name=\"glsl\" version=\"1.5\">\n\t\t<bind param=\"scale\" program=\"fp\" />\n\t\t<bind param=\"tex0\" program=\"fp\" />\n\t\t<bind param=\"modelViewProjectionMatrix\" program=\"vp\" />\n\t\t<bind param=\"textureMatrix0\" program=\"vp\" />\n\t\t<bind param=\"position\" program=\"vp\" />\n\t\t<bind param=\"texcoord\" program=\"vp\" />\n\t\t<bind param=\"color\" program=\"vp\" />\n\t\t<program name=\"vp\" type=\"vertex\"  >\n\t\t<![CDATA[\n\t\t\t#version 330 core\n\t\t\t\n\t\t\tin vec3 position;\n\t\t\tin vec2 texcoord;\n\t\t\tout jit_PerVertex {\n\t\t\t\tvec2 texcoord;\n\t\t\t\tvec4 color;\n\t\t\t} jit_out;\n\t\t\tuniform mat4 modelViewProjectionMatrix;\n\t\t\tuniform mat4 textureMatrix0;\n\t\t\tuniform vec4 color;\n\t\t\t\n\t\t\tvoid main(void) {\n\t\t\t\tgl_Position = modelViewProjectionMatrix*vec4(position, 1.);\n\t\t\t\tjit_out.texcoord = vec2(textureMatrix0*vec4(texcoord, 0., 1.));\n\t\t\t\tjit_out.color = color;\n\t\t\t}\n\t\t]]>\n\t\t</program>\n\t\t\n\t\t<program name=\"fp\" type=\"fragment\"  >\n\t\t<![CDATA[\n\t\t\t#version 330 core\n\t\t\t\n\t\t\tin jit_PerVertex {\n\t\t\t\tvec2 texcoord;\n\t\t\t\tvec4 color;\n\t\t\t} jit_in;\n\t\t\tlayout (location = 0) out vec4 outColor;\n\t\t\t\n\t\t\tuniform samplerJit0 tex0;\n\t\t\tuniform float scale;\n\t\t\tvoid main(void) {\n\t\t\t\toutColor = texture(tex0, jit_in.texcoord) * jit_in.color * scale;\n\t\t\t}\n\t\t]]>\n\t\t</program>\n\t</language>\n</jittershader>\n",
						"filename" : "none",
						"flags" : 0,
						"embed" : 1,
						"autowatch" : 1
					}

				}

			}
, 			{
				"box" : 				{
					"id" : "obj-8",
					"maxclass" : "jit.pwindow",
					"numinlets" : 1,
					"numoutlets" : 2,
					"outlettype" : [ "jit_matrix", "" ],
					"patching_rect" : [ 281.5, 142.25, 80.0, 60.0 ],
					"sync" : 1
				}

			}
, 			{
				"box" : 				{
					"id" : "obj-7",
					"maxclass" : "newobj",
					"numinlets" : 1,
					"numoutlets" : 2,
					"outlettype" : [ "jit_matrix", "" ],
					"patching_rect" : [ 281.75, 96.25, 53.0, 22.0 ],
					"text" : "jit.movie"
				}

			}
, 			{
				"box" : 				{
					"fontface" : 0,
					"fontname" : "Arial",
					"fontsize" : 12.0,
					"id" : "obj-6",
					"maxclass" : "number~",
					"mode" : 2,
					"numinlets" : 2,
					"numoutlets" : 2,
					"outlettype" : [ "signal", "float" ],
					"patching_rect" : [ 201.25, 205.579943776130676, 56.0, 22.0 ],
					"sig" : 0.0
				}

			}
, 			{
				"box" : 				{
					"id" : "obj-5",
					"maxclass" : "newobj",
					"numinlets" : 1,
					"numoutlets" : 1,
					"outlettype" : [ "signal" ],
					"patching_rect" : [ 200.25, 155.329943776130676, 58.0, 22.0 ],
					"text" : "sig~ 0.75"
				}

			}
, 			{
				"box" : 				{
					"id" : "obj-4",
					"maxclass" : "newobj",
					"numinlets" : 1,
					"numoutlets" : 0,
					"patching_rect" : [ 144.162431478500366, 155.329943776130676, 32.0, 22.0 ],
					"text" : "print"
				}

			}
, 			{
				"box" : 				{
					"id" : "obj-3",
					"maxclass" : "toggle",
					"numinlets" : 1,
					"numoutlets" : 1,
					"outlettype" : [ "int" ],
					"parameter_enable" : 0,
					"patching_rect" : [ 143.75, 74.25, 24.0, 24.0 ]
				}

			}
, 			{
				"box" : 				{
					"id" : "obj-1",
					"maxclass" : "newobj",
					"numinlets" : 2,
					"numoutlets" : 1,
					"outlettype" : [ "bang" ],
					"patching_rect" : [ 144.0, 121.0, 69.0, 22.0 ],
					"text" : "metro 1000"
				}

			}
 ],
		"lines" : [ 			{
				"patchline" : 				{
					"destination" : [ "obj-4", 0 ],
					"source" : [ "obj-1", 0 ]
				}

			}
, 			{
				"patchline" : 				{
					"destination" : [ "obj-1", 0 ],
					"source" : [ "obj-3", 0 ]
				}

			}
, 			{
				"patchline" : 				{
					"destination" : [ "obj-6", 0 ],
					"source" : [ "obj-5", 0 ]
				}

			}
, 			{
				"patchline" : 				{
					"destination" : [ "obj-8", 0 ],
					"source" : [ "obj-7", 0 ]
				}

			}
, 			{
				"patchline" : 				{
					"destination" : [ "obj-10", 0 ],
					"source" : [ "obj-9", 0 ]
				}

			}
 ],
		"dependency_cache" : [  ],
		"autosave" : 0
	}

}
